<?xml version="1.0" encoding="UTF-8"?>
<svg xmlns="http://www.w3.org/2000/svg" xmlns:xlink="http://www.w3.org/1999/xlink" width="32px" height="32px" viewBox="0 0 32 32" version="1.1">
<g id="surface1">
<path style=" stroke:none;fill-rule:nonzero;fill:#ffffff;fill-opacity:1;" d="M 23.230469 14.875 L 12.230469 8.1875 C 11.242188 7.636719 10 8.34375 10 9.5 L 10 22.5 C 10 23.648438 11.238281 24.363281 12.230469 23.8125 L 23.230469 17.5 C 24.257812 16.929688 24.257812 15.449219 23.230469 14.875 Z M 31.5 16 C 31.5 7.4375 24.5625 0.5 16 0.5 C 7.4375 0.5 0.5 7.4375 0.5 16 C 0.5 24.5625 7.4375 31.5 16 31.5 C 24.5625 31.5 31.5 24.5625 31.5 16 Z M 3.5 16 C 3.5 9.09375 9.09375 3.5 16 3.5 C 22.90625 3.5 28.5 9.09375 28.5 16 C 28.5 22.90625 22.90625 28.5 16 28.5 C 9.09375 28.5 3.5 22.90625 3.5 16 Z M 3.5 16 "/>
</g>
</svg>
